<svg width="24" height="24" viewBox="0 0 24 24" fill="none" xmlns="http://www.w3.org/2000/svg">
<g id="heroicons-outline/star">
<path id="Star 5" d="M11.5295 3.4665C11.7038 3.04746 12.2974 3.04746 12.4717 3.4665L14.4001 8.10287C14.4736 8.27952 14.6397 8.40022 14.8304 8.41551L19.8357 8.81679C20.2881 8.85306 20.4716 9.41762 20.1269 9.71286L16.3134 12.9796C16.1681 13.104 16.1046 13.2993 16.149 13.4854L17.3141 18.3698C17.4194 18.8113 16.9391 19.1602 16.5518 18.9236L12.2666 16.3062C12.1033 16.2065 11.8979 16.2065 11.7347 16.3062L7.44939 18.9236C7.06208 19.1602 6.58184 18.8113 6.68714 18.3698L7.85224 13.4854C7.89663 13.2993 7.83318 13.104 7.68787 12.9796L3.87433 9.71286C3.52966 9.41762 3.71309 8.85306 4.16548 8.81679L9.17082 8.41551C9.36154 8.40022 9.52767 8.27952 9.60115 8.10287L11.5295 3.4665Z" stroke="white" stroke-width="1.2" stroke-linecap="round" stroke-linejoin="round"/>
</g>
</svg>
